<?xml version="1.0" encoding="UTF-8" standalone="no"?>
<!-- Created with Inkscape (http://www.inkscape.org/) -->
<svg
   xmlns:dc="http://purl.org/dc/elements/1.1/"
   xmlns:cc="http://web.resource.org/cc/"
   xmlns:rdf="http://www.w3.org/1999/02/22-rdf-syntax-ns#"
   xmlns:svg="http://www.w3.org/2000/svg"
   xmlns="http://www.w3.org/2000/svg"
   xmlns:xlink="http://www.w3.org/1999/xlink"
   xmlns:sodipodi="http://sodipodi.sourceforge.net/DTD/sodipodi-0.dtd"
   xmlns:inkscape="http://www.inkscape.org/namespaces/inkscape"
   width="744.09448819"
   height="1052.3622047"
   id="svg2"
   sodipodi:version="0.32"
   inkscape:version="0.45"
   sodipodi:docbase="/home/curved/Projects/ff3/data"
   sodipodi:docname="Raptor.svg"
   inkscape:export-filename="/home/curved/Projects/ff3/art/Raptor.png"
   inkscape:export-xdpi="19.495518"
   inkscape:export-ydpi="19.495518"
   inkscape:output_extension="org.inkscape.output.svg.inkscape"
   sodipodi:modified="TRUE">
  <defs
     id="defs4">
    <linearGradient
       id="linearGradient30550">
      <stop
         style="stop-color:#b3ba96;stop-opacity:1;"
         offset="0"
         id="stop30552" />
      <stop
         style="stop-color:#afb690;stop-opacity:1;"
         offset="1"
         id="stop30554" />
    </linearGradient>
    <linearGradient
       id="linearGradient27844">
      <stop
         id="stop27846"
         offset="0"
         style="stop-color:black;stop-opacity:1;" />
      <stop
         id="stop27848"
         offset="1"
         style="stop-color:#ae0000;stop-opacity:1;" />
    </linearGradient>
    <linearGradient
       id="linearGradient27826">
      <stop
         style="stop-color:#ffcc3e;stop-opacity:1;"
         offset="0"
         id="stop27828" />
      <stop
         style="stop-color:#ae0000;stop-opacity:1;"
         offset="1"
         id="stop27830" />
    </linearGradient>
    <linearGradient
       id="linearGradient27801">
      <stop
         style="stop-color:white;stop-opacity:1;"
         offset="0"
         id="stop27803" />
      <stop
         style="stop-color:#42386b;stop-opacity:1;"
         offset="1"
         id="stop27805" />
    </linearGradient>
    <linearGradient
       id="linearGradient17048">
      <stop
         style="stop-color:white;stop-opacity:1;"
         offset="0"
         id="stop17050" />
      <stop
         id="stop17056"
         offset="0.2857143"
         style="stop-color:white;stop-opacity:0.49803922;" />
      <stop
         style="stop-color:white;stop-opacity:0.24705882;"
         offset="0.41326532"
         id="stop17058" />
      <stop
         style="stop-color:white;stop-opacity:0;"
         offset="1"
         id="stop17052" />
    </linearGradient>
    <radialGradient
       inkscape:collect="always"
       xlink:href="#linearGradient27801"
       id="radialGradient27807"
       cx="367.30063"
       cy="335.21753"
       fx="367.30063"
       fy="335.21753"
       r="15.90625"
       gradientTransform="matrix(-1,-1.109645e-7,0,-7.507327,734.7382,2818.4)"
       gradientUnits="userSpaceOnUse" />
    <linearGradient
       inkscape:collect="always"
       xlink:href="#linearGradient27826"
       id="linearGradient27832"
       x1="472.50003"
       y1="354.50504"
       x2="663.92853"
       y2="495.93362"
       gradientUnits="userSpaceOnUse" />
    <linearGradient
       inkscape:collect="always"
       xlink:href="#linearGradient27844"
       id="linearGradient27854"
       gradientUnits="userSpaceOnUse"
       x1="649.72858"
       y1="508.70505"
       x2="440.27139"
       y2="383.25504" />
    <linearGradient
       inkscape:collect="always"
       xlink:href="#linearGradient27844"
       id="linearGradient30666"
       gradientUnits="userSpaceOnUse"
       gradientTransform="matrix(-1,0,0,1,733.2024,-0.40483)"
       x1="649.72858"
       y1="508.70505"
       x2="440.27139"
       y2="383.25504" />
    <linearGradient
       inkscape:collect="always"
       xlink:href="#linearGradient27826"
       id="linearGradient30670"
       gradientUnits="userSpaceOnUse"
       gradientTransform="matrix(-1,0,0,1,733.2024,-0.40483)"
       x1="472.50003"
       y1="354.50504"
       x2="663.92853"
       y2="495.93362" />
    <linearGradient
       inkscape:collect="always"
       xlink:href="#linearGradient27826"
       id="linearGradient30702"
       gradientUnits="userSpaceOnUse"
       x1="472.50003"
       y1="354.50504"
       x2="663.92853"
       y2="495.93362" />
    <linearGradient
       inkscape:collect="always"
       xlink:href="#linearGradient27844"
       id="linearGradient30715"
       gradientUnits="userSpaceOnUse"
       gradientTransform="matrix(-1,0,0,1,733.2024,-0.40483)"
       x1="649.72858"
       y1="508.70505"
       x2="440.27139"
       y2="383.25504" />
    <linearGradient
       inkscape:collect="always"
       xlink:href="#linearGradient27826"
       id="linearGradient30718"
       gradientUnits="userSpaceOnUse"
       gradientTransform="matrix(-1,0,0,1,723.3534,5.151009)"
       x1="472.50003"
       y1="354.50504"
       x2="663.92853"
       y2="495.93362" />
    <radialGradient
       inkscape:collect="always"
       xlink:href="#linearGradient27801"
       id="radialGradient2215"
       gradientUnits="userSpaceOnUse"
       gradientTransform="matrix(-1,-1.109645e-7,0,-7.507327,734.7382,2818.4)"
       cx="367.30063"
       cy="335.21753"
       fx="367.30063"
       fy="335.21753"
       r="15.90625" />
    <linearGradient
       inkscape:collect="always"
       xlink:href="#linearGradient27844"
       id="linearGradient2219"
       gradientUnits="userSpaceOnUse"
       x1="649.72858"
       y1="508.70505"
       x2="440.27139"
       y2="383.25504" />
    <linearGradient
       inkscape:collect="always"
       xlink:href="#linearGradient27826"
       id="linearGradient3276"
       gradientUnits="userSpaceOnUse"
       gradientTransform="matrix(0.853518,-0.521064,0.521064,0.853518,-213.07993,633.46283)"
       x1="472.50003"
       y1="354.50504"
       x2="663.92853"
       y2="495.93362" />
    <linearGradient
       inkscape:collect="always"
       xlink:href="#linearGradient27844"
       id="linearGradient3278"
       gradientUnits="userSpaceOnUse"
       gradientTransform="matrix(0.853518,-0.521064,0.521064,0.853518,-213.07993,633.46283)"
       x1="649.72858"
       y1="508.70505"
       x2="440.27139"
       y2="383.25504" />
    <radialGradient
       inkscape:collect="always"
       xlink:href="#linearGradient27801"
       id="radialGradient3316"
       gradientUnits="userSpaceOnUse"
       gradientTransform="matrix(-1,-1.109645e-7,0,-7.507327,734.7382,2818.4)"
       cx="367.30063"
       cy="335.21753"
       fx="367.30063"
       fy="335.21753"
       r="15.90625" />
    <linearGradient
       inkscape:collect="always"
       xlink:href="#linearGradient27844"
       id="linearGradient3320"
       gradientUnits="userSpaceOnUse"
       x1="649.72858"
       y1="508.70505"
       x2="440.27139"
       y2="383.25504" />
    <linearGradient
       inkscape:collect="always"
       xlink:href="#linearGradient27826"
       id="linearGradient3323"
       gradientUnits="userSpaceOnUse"
       x1="472.50003"
       y1="354.50504"
       x2="663.92853"
       y2="495.93362" />
    <linearGradient
       inkscape:collect="always"
       xlink:href="#linearGradient27826"
       id="linearGradient5174"
       gradientUnits="userSpaceOnUse"
       gradientTransform="matrix(0.9996516,-2.640882e-2,2.640882e-2,0.9996516,-12.55564,13.712973)"
       x1="472.50003"
       y1="354.50504"
       x2="663.92853"
       y2="495.93362" />
    <linearGradient
       inkscape:collect="always"
       xlink:href="#linearGradient27844"
       id="linearGradient5176"
       gradientUnits="userSpaceOnUse"
       gradientTransform="matrix(0.9996516,-2.640882e-2,2.640882e-2,0.9996516,-12.55564,13.712973)"
       x1="649.72858"
       y1="508.70505"
       x2="440.27139"
       y2="383.25504" />
  </defs>
  <sodipodi:namedview
     id="base"
     pagecolor="#ffffff"
     bordercolor="#666666"
     borderopacity="1.0"
     gridtolerance="10000"
     guidetolerance="10"
     objecttolerance="10"
     inkscape:pageopacity="0.0"
     inkscape:pageshadow="2"
     inkscape:zoom="0.7"
     inkscape:cx="-21.615189"
     inkscape:cy="731.73548"
     inkscape:document-units="px"
     inkscape:current-layer="layer1"
     showguides="true"
     inkscape:guide-bbox="true"
     inkscape:window-width="1680"
     inkscape:window-height="975"
     inkscape:window-x="0"
     inkscape:window-y="25" />
  <metadata
     id="metadata7">
    <rdf:RDF>
      <cc:Work
         rdf:about="">
        <dc:format>image/svg+xml</dc:format>
        <dc:type
           rdf:resource="http://purl.org/dc/dcmitype/StillImage" />
      </cc:Work>
    </rdf:RDF>
  </metadata>
  <g
     inkscape:label="Layer 1"
     inkscape:groupmode="layer"
     id="layer1">
    <rect
       style="opacity:0.01098902;fill:#000000;fill-opacity:1;stroke:#756b64;stroke-width:2.4000001;stroke-linejoin:round;stroke-miterlimit:4;stroke-dasharray:none;stroke-opacity:1"
       id="rect2219"
       width="721.42859"
       height="711.42859"
       x="-1.2500005"
       y="-29.066389" />
    <g
       id="g3331"
       inkscape:export-filename="/home/curved/Projects/ff3/data/RaptorBody.png"
       inkscape:export-xdpi="19.495518"
       inkscape:export-ydpi="19.495518">
      <path
         sodipodi:nodetypes="cccccccccccccccc"
         id="path4548"
         d="M 392.94067,462.43067 L 393.44575,492.97699 L 408.35577,501.93332 L 418.84463,502.70061 L 435.64086,495.50316 L 441.94654,466.48143 L 448.50317,385.64942 L 446.47192,353.46319 L 448.12436,320.26759 L 444.47192,313.29932 L 421.35913,311.15196 L 415.54917,317.21446 L 410.3604,347.77791 L 407.09692,350.30567 L 402.03442,379.58692 L 392.94067,462.43067 z "
         style="fill:#ece6cf;fill-opacity:1;stroke:#756b64;stroke-opacity:1;stroke-width:2.4;stroke-miterlimit:4;stroke-dasharray:none" />
      <path
         id="path12607"
         d="M 421.78125,311.125 L 415.71875,317 L 410.53125,347.71875 L 408.0625,387.1875 L 405.75,384.40625 L 407.3125,350.03125 L 401.4375,381.28125 L 393.21875,455.5625 L 393.5625,492.90625 L 408.21875,502 L 408.21875,469.6875 L 413.5625,428.78125 L 417.5,392.375 L 421.78125,311.125 z M 443.96875,313.6875 L 430.0625,392.71875 L 425.78125,442.21875 L 424.25,470.78125 L 418.71875,502.34375 L 435.625,495.5 L 442.6875,462.6875 L 449.25,389.4375 L 446.25,352.59375 L 448.25,321 L 443.96875,313.6875 z "
         style="fill:#000000;fill-opacity:0.19186048;stroke:none;stroke-opacity:1" />
      <path
         style="fill:#ece6cf;fill-opacity:1;stroke:#756b64;stroke-opacity:1;stroke-width:2.4;stroke-miterlimit:4;stroke-dasharray:none"
         d="M 340.93233,462.93575 L 340.42725,493.48207 L 325.51723,502.4384 L 315.02837,503.20569 L 298.23214,496.00824 L 291.92646,466.98651 L 285.36983,386.1545 L 287.40108,353.96827 L 285.74864,320.77267 L 289.40108,313.8044 L 312.51387,311.65704 L 318.32383,317.71954 L 323.5126,348.28299 L 326.77608,350.81075 L 331.83858,380.092 L 340.93233,462.93575 z "
         id="path25068"
         sodipodi:nodetypes="cccccccccccccccc" />
      <path
         style="fill:#000000;fill-opacity:0.19186048;stroke:none;stroke-opacity:1"
         d="M 311.79911,310.76786 L 317.86161,316.64286 L 323.04911,347.36161 L 325.51786,386.83036 L 327.83036,384.04911 L 326.26786,349.67411 L 332.14286,380.92411 L 340.36161,455.20536 L 340.01786,492.54911 L 325.36161,501.64286 L 325.36161,469.33036 L 320.01786,428.42411 L 316.08036,392.01786 L 311.79911,310.76786 z M 289.61161,313.33036 L 303.51786,392.36161 L 307.79911,441.86161 L 309.33036,470.42411 L 314.86161,501.98661 L 297.95536,495.14286 L 290.89286,462.33036 L 284.33036,389.08036 L 287.33036,352.23661 L 285.33036,320.64286 L 289.61161,313.33036 z "
         id="path26020" />
      <path
         id="path4567"
         d="M 367.21875,7.71875 L 352.46875,21.4375 L 338.5,66.6875 L 334.09375,220.03125 L 333.1875,252.125 L 318.34375,271.75 L 319.0625,289.59375 L 332.25,285.03125 L 331.5625,308.875 L 332.59375,335.125 L 335.625,365.4375 L 332.59375,381.59375 L 324.1875,393.0625 L 326.84375,438.34375 L 320.71875,429.53125 L 307.0625,431.15625 L 302.5,440.15625 L 295.96875,395.3125 L 286.125,387.65625 L 278.03125,348.28125 L 273,308.875 L 265.90625,293.71875 L 258.84375,296.75 L 258.84375,313.9375 L 242.6875,344.21875 L 226.53125,407.875 L 225.5,441.21875 L 229.5625,465.4375 L 239.65625,479.59375 L 250.75,483.625 L 269.96875,482.625 L 286.65625,465.21875 L 292.6875,468.5 L 303.03125,463.9375 L 308.875,470.90625 L 325.5,470.09375 L 331.84375,461.40625 L 341.6875,464.4375 L 345.71875,461.40625 L 352.21875,582.9375 L 366.65625,596.0625 L 381.65625,582.40625 L 388.15625,460.90625 L 392.1875,463.9375 L 402.03125,460.90625 L 408.375,469.59375 L 425,470.40625 L 430.84375,463.4375 L 441.1875,468 L 447.21875,464.71875 L 463.90625,482.125 L 483.125,483.125 L 494.21875,479.09375 L 504.3125,464.9375 L 508.375,440.71875 L 507.34375,407.375 L 491.1875,343.71875 L 475.03125,313.4375 L 475.03125,296.25 L 467.96875,293.21875 L 460.875,308.375 L 455.84375,347.78125 L 447.75,387.15625 L 437.90625,394.8125 L 431.375,439.65625 L 426.8125,430.65625 L 413.15625,429.03125 L 407.03125,437.84375 L 409.6875,392.5625 L 401.28125,381.09375 L 398.25,364.9375 L 401.28125,334.625 L 402.3125,308.375 L 401.625,283.96875 L 413.5625,288.0625 L 414.28125,270.21875 L 400.71875,252.28125 L 399.78125,219.53125 L 395.375,66.1875 L 381.40625,20.9375 L 367.21875,7.71875 z "
         style="fill:#727548;fill-opacity:1;stroke:#000000;stroke-width:3.20000005;stroke-miterlimit:4;stroke-dasharray:none;stroke-opacity:1" />
      <path
         id="path2229"
         d="M 367.21875,7.71875 L 352.46875,21.4375 L 338.5,66.6875 L 336.9375,121.0625 C 339.85361,118.9815 340.10454,116.23813 341.4375,110.90625 C 341.70925,109.81924 342.88402,98.573624 344.46875,97.78125 C 345.88531,97.072972 353.13028,91.885548 351.53125,88.6875 C 349.90242,85.429855 342.4375,86.267155 342.4375,82.625 C 342.4375,76.19442 344.82705,73.035525 346.46875,66.46875 C 348.88649,56.79781 347.62494,61.890644 353.5625,60.40625 C 357.27104,59.479116 363.56671,60.701919 364.65625,56.34375 C 365.51649,52.902803 365.76564,46.906116 366.6875,43.21875 C 368.11622,37.503856 369.62555,34.125 376.78125,34.125 C 379.74399,34.125 382.82155,33.922912 385.59375,34.46875 L 381.40625,20.9375 L 367.21875,7.71875 z M 381.03125,69.625 C 379.58296,69.638875 378.09092,70.190334 376.78125,71.5 C 371.91282,76.36843 375.78124,76.702186 375.78125,82.625 C 375.78125,86.682909 372.90953,92.921048 375.78125,96.75 C 378.11752,99.865031 380.89688,102.94584 383.84375,106.875 C 386.76132,110.76509 388.84661,112.78699 390.9375,116.96875 C 391.47195,118.03766 394.44355,121.1449 397.03125,123.96875 L 396.25,96.9375 C 392.67942,96.338067 388.90626,95.25002 388.90625,92.71875 C 388.90625,87.006457 389.00865,81.043296 387.90625,75.53125 C 387.24345,72.217231 384.21749,69.594475 381.03125,69.625 z M 357.03125,123.34375 C 356.35942,123.41308 355.84497,123.90135 355.5625,125.03125 C 354.75929,128.24407 355.06308,137.30454 351.53125,138.1875 C 346.19051,139.52268 341.48821,139.98057 336.375,140.125 L 334.09375,220.03125 L 333.25,250.09375 C 335.36355,248.59969 336.81987,246.5955 337.40625,244.25 C 339.04842,237.68131 340.60682,236.75654 345.46875,239.1875 C 348.06943,240.48784 354.86091,243.81559 356.59375,247.28125 C 357.87305,249.83984 361.73258,253.68022 362.65625,257.375 C 364.45172,264.55685 361.85205,259.79787 359.625,255.34375 C 358.81931,253.73238 346.46874,247.63939 346.46875,252.3125 C 346.46875,254.71271 344.95918,265.95918 346.46875,267.46875 C 350.79366,271.79365 349.95456,271.74431 348.5,277.5625 C 347.47455,281.66429 345.46875,284.05548 345.46875,289.6875 C 345.46875,295.48666 345.35209,299.54796 347.5,303.84375 C 348.63569,306.11515 352.71192,317.78808 355.5625,314.9375 C 360.95814,309.54186 355.5625,310.03179 355.5625,303.84375 C 355.5625,297.89361 355.32127,293.99121 359.625,289.6875 C 361.49091,287.82158 373.77649,284.60327 373.75,284.65625 C 372.73985,286.67655 371.26659,288.52743 370.71875,290.71875 C 367.89653,302.00763 371.90108,294.93234 376.78125,299.8125 C 379.6025,302.63376 381.86872,303.81877 377.8125,307.875 C 374.78716,310.90035 375.18315,314.26739 373.75,320 C 372.61693,324.53227 373.94689,330.36874 372.75,335.15625 C 371.51064,340.11368 370.85681,343.72905 369.71875,348.28125 C 368.87161,351.66982 362.93591,358.68592 364.65625,360.40625 C 367.01761,362.76761 367.26497,369.07744 369.71875,371.53125 C 371.51103,373.32352 375.79293,377.81739 380.8125,376.5625 C 383.44028,375.90555 393.22354,370.58712 384.875,368.5 C 379.14855,367.06839 379.24416,364.85593 383.84375,361.40625 C 386.54399,359.38107 390.30104,356.1776 393.96875,354.34375 C 397.72985,352.4632 398.46707,349.92185 400.125,346.1875 L 401,337.5625 C 399.8972,337.10285 398.23267,336.72223 395.96875,336.15625 C 388.79907,334.36383 389.90625,332.37535 389.90625,326.0625 C 389.90625,315.96408 395.2072,317.20721 392.9375,314.9375 C 390.32699,312.32699 388.89198,309.39419 394.96875,307.875 C 397.96417,307.12615 400.19248,306.25475 402.21875,304.96875 L 401.625,283.96875 L 408.625,286.375 C 407.00928,282.99893 405.30715,278.59375 410.125,278.59375 C 411.20009,278.59375 412.55045,278.66655 413.9375,278.6875 L 414.28125,270.21875 L 400.71875,252.28125 L 400.40625,241.21875 C 395.56347,241.21875 390.71749,241.21875 385.875,241.21875 C 380.78157,241.21875 375.03687,241.72996 372.75,237.15625 C 370.79964,233.25552 369.87635,229.69292 368.71875,225.0625 C 367.25573,219.21043 364.84261,217.1551 360.625,212.9375 C 356.33364,208.64615 351.94929,208.29303 348.5,204.84375 C 344.85897,201.20273 342.30073,202.23412 341.4375,198.78125 C 340.89863,196.62575 339.19065,185.0172 344.46875,187.65625 C 347.99385,189.4188 344.55883,198.78125 348.5,198.78125 C 352.26462,198.78125 358.59374,197.48337 358.59375,193.71875 C 358.59375,188.07552 358.6394,184.68509 356.59375,180.59375 C 354.7143,176.83486 355.34328,172.96972 357.59375,168.46875 C 359.23459,165.18707 362.58736,161.6506 363.65625,157.375 C 364.7254,153.09841 367.6875,150.4144 367.6875,145.25 C 367.6875,139.84547 367.54345,134.80566 365.6875,131.09375 C 365.57473,130.86819 359.9425,123.04332 357.03125,123.34375 z M 397.3125,134.03125 C 395.95985,134.57937 394.2484,135.0008 391.9375,136.15625 C 386.49887,138.87557 387.90624,142.97704 387.90625,149.28125 C 387.90625,154.77856 386.41675,157.47955 387.90625,163.4375 C 389.08405,168.14871 398.14051,171.21898 395.96875,175.5625 C 394.61125,178.27751 393.10444,186.85671 389.90625,187.65625 C 386.88987,188.41035 382.8497,193.73067 384.875,197.78125 C 388.59178,205.2148 390.53893,204.47643 395.96875,209.90625 C 396.82291,210.76041 398.09396,211.53624 399.5625,212.25 L 397.3125,134.03125 z M 318.65625,279.75 L 319.0625,289.59375 L 328.25,286.40625 C 327.96284,283.5545 327.18937,281.07077 325.28125,280.59375 C 323.36705,280.1152 321.09852,279.88046 318.65625,279.75 z M 265.90625,293.71875 L 262.4375,295.21875 C 262.02332,298.19164 260.88193,301.18859 258.84375,303.21875 L 258.84375,313.9375 L 251.78125,327.15625 C 252.3207,330.9262 253.84957,334.22021 257.59375,335.15625 C 258.75762,335.44722 269.32375,339.58247 271.71875,337.1875 C 275.62333,333.28291 271.83796,330.88655 274.75,325.0625 C 274.83433,324.89383 274.91516,324.74983 275,324.59375 L 273,308.875 L 265.90625,293.71875 z M 476.90625,316.9375 C 473.12359,321.07384 473.79132,322.94863 470.71875,329.09375 C 468.07413,334.38299 467.49753,337.77627 469.71875,342.21875 C 472.6027,347.98665 475.53569,346.03569 479.8125,350.3125 C 481.35304,351.85304 486.34816,357.49119 483.875,362.4375 C 481.67812,366.83127 478.81249,370.75383 478.8125,377.59375 C 478.8125,386.12661 483.8832,382.64139 486.90625,388.6875 C 489.16837,393.21175 487.54943,396.13806 483.875,399.8125 C 482.4557,401.2318 473.10363,406.55102 474.78125,409.90625 C 477.51522,415.37419 480.02377,420.46282 485.875,419 C 491.16897,417.67651 492.96661,415.97087 497,411.9375 C 499.58999,409.34751 504.5753,406.9747 507.4375,410.90625 L 507.34375,407.375 L 491.1875,343.71875 L 476.90625,316.9375 z M 234.15625,377.84375 L 226.53125,407.875 L 226.25,417.28125 C 227.62323,418.03937 228.99475,418.67057 230.3125,419 C 236.01348,420.42525 238.05109,420.35514 242.4375,415.96875 C 246.60657,411.79968 250.89598,412.63548 255.5625,414.96875 C 262.77534,418.57517 261.62499,417.95179 261.625,426.0625 C 261.625,432.03708 257.59375,433.82374 257.59375,438.1875 C 257.59375,442.94381 256.82415,449.65094 259.59375,453.34375 C 262.63148,457.39405 268.17527,462.43752 274.75,462.4375 C 283.22444,462.4375 280.27404,460.36059 277.78125,455.375 C 276.27901,452.37051 276.3851,443.44806 282.84375,440.21875 C 289.04856,437.11634 290.30306,439.87938 297,441.21875 C 302.65175,442.3491 317.61446,438.63906 314.15625,443.25 C 311.5221,446.7622 307.09376,449.95349 307.09375,454.34375 C 307.09375,460.94739 310.56903,463.2762 312.125,469.5 C 312.22171,469.88682 312.33868,470.30108 312.46875,470.71875 L 325.5,470.09375 L 331.84375,461.40625 L 341.6875,464.4375 L 345.71875,461.40625 L 347.5,494.875 C 350.20804,497.82483 351.53126,500.28646 351.53125,505.875 C 351.53125,519.18286 348.63798,515.52866 356.59375,513.9375 C 361.92734,512.87079 368.71874,510.48762 368.71875,518 C 368.71875,522.8467 370.08182,529.7753 374.78125,532.125 C 375.81573,532.64224 380.12545,533.92652 384.21875,534.59375 L 387.875,466.375 C 387.5539,466.42077 387.23043,466.46875 386.875,466.46875 C 380.90504,466.46875 377.09849,464.52463 372.75,463.4375 C 370.01101,462.75275 356.53909,461.42774 360.625,460.40625 C 363.95118,459.5747 372.79102,454.49316 370.71875,449.3125 C 367.99281,442.49767 367.21431,436.03237 358.59375,438.1875 C 356.8783,438.61637 343.97714,436.1395 344.46875,435.15625 C 345.9746,432.14455 350.53126,430.42967 350.53125,427.0625 C 350.53125,422.16406 351.58828,413.98164 347.5,411.9375 C 340.74255,408.55877 340.14822,409.48479 337.40625,414.96875 C 335.42905,418.92315 333.10368,423.73687 326.28125,422.03125 C 326.14957,421.99833 326.00791,421.96945 325.875,421.9375 L 326.84375,438.34375 L 320.71875,429.53125 L 307.0625,431.15625 L 302.5,440.15625 L 298.5,412.65625 C 297.51656,411.9382 296.89608,411.32191 297,410.90625 C 297.2497,409.90744 297.55493,409.01092 297.84375,408.15625 L 295.96875,395.3125 L 286.125,387.65625 L 285.15625,383 C 281.30056,383.3141 277.55291,383.57573 273.75,382.625 C 269.10202,381.46301 266.471,379.59375 260.625,379.59375 C 255.82539,379.59375 249.12752,380.75844 244.46875,379.59375 C 241.77971,378.92149 238.01924,378.20919 234.15625,377.84375 z M 404.96875,386.125 C 403.94603,388.6855 402.74879,390.31491 401.03125,393.75 C 397.83241,400.14771 393.3442,402.12478 387.90625,404.84375 C 380.95556,408.31909 386.60624,414.31874 389.90625,415.96875 C 394.62518,418.3282 397.43627,419.62469 403.0625,421.03125 C 405.29012,421.58815 406.89369,420.82223 408.09375,419.53125 L 409.6875,392.5625 L 404.96875,386.125 z M 403.4375,444.28125 C 401.29137,444.27923 399.09381,444.72654 397,445.25 C 390.37196,446.90701 393.96874,450.11576 393.96875,456.375 C 393.96875,457.80936 393.70632,461.30528 392,463.78125 L 392.1875,463.9375 L 402.03125,460.90625 L 408.375,469.59375 L 419.09375,470.125 C 417.70693,468.05254 416.07502,465.98763 415.1875,462.4375 C 414.18592,458.4312 414.00948,450.16571 411.125,447.28125 C 408.87065,445.0269 406.1968,444.28385 403.4375,444.28125 z M 456.21875,448 C 452.94992,448.07249 449.96658,448.57122 449.53125,450.3125 C 448.05621,456.21268 449.10454,459.76194 450.53125,465.46875 C 450.85523,466.76466 451.22981,467.9915 451.5625,469.21875 L 463.90625,482.125 L 483.125,483.125 L 494.21875,479.09375 L 497.75,474.125 C 493.00653,471.63638 488.05554,468.03463 486.90625,463.4375 C 485.1406,456.37491 478.36795,460.54842 475.78125,455.375 C 472.46238,448.73726 470.42396,448.28126 464.65625,448.28125 C 463.04189,448.28125 459.48758,447.92751 456.21875,448 z M 234.84375,452.8125 C 234.01866,452.7935 232.79459,453.35091 230.3125,454.34375 C 229.52077,454.66044 228.70055,455.02238 227.875,455.40625 L 229.5625,465.4375 L 238.84375,478.4375 C 240.25424,476.76965 241.4375,475.01829 241.4375,473.53125 C 241.4375,468.5284 242.43694,462.44714 239.40625,458.40625 C 236.46271,454.48153 236.2189,452.84416 234.84375,452.8125 z M 350.1875,544.71875 L 352.21875,582.9375 L 366.65625,596.0625 L 378.125,585.625 C 377.42378,584.40867 376.17849,583.65624 373.75,583.65625 C 366.84725,583.65625 363.6301,583.68242 366.6875,580.625 C 370.8471,576.4654 369.71876,577.34848 369.71875,570.53125 C 369.71875,561.49834 365.1828,565.45929 362.65625,560.40625 C 361.65264,558.39902 361.16641,550.06756 357.59375,548.28125 C 355.47244,547.2206 352.78572,545.53205 350.1875,544.71875 z "
         style="fill:#283d3e;fill-opacity:1;stroke:#051306;stroke-width:2.5;stroke-linejoin:round;stroke-miterlimit:4;stroke-dasharray:none;stroke-opacity:1" />
      <path
         id="path27824"
         d="M 484.625,331.4375 L 447.9375,386.3125 L 447.75,387.15625 L 446.9375,387.8125 L 436.71875,403.0625 L 436.6875,403.09375 L 431.75,437 L 499.75,377.4375 L 491.1875,343.71875 L 484.625,331.4375 z M 507.375,408.5625 L 456.78125,469.15625 L 508.125,432.28125 L 507.375,408.5625 z M 418.875,429.71875 L 397,462.4375 L 402.03125,460.90625 L 402.96875,462.1875 L 430.5625,438.03125 L 426.8125,430.65625 L 418.875,429.71875 z "
         style="fill:url(#linearGradient3323);fill-opacity:1;stroke:none;stroke-opacity:0.39534882" />
      <path
         id="path27834"
         d="M 483.71875,329.71875 L 448.84375,381.875 L 447.75,387.15625 L 442.65625,391.125 L 437.28125,399.15625 L 436.125,407 L 485.5625,333.15625 L 483.71875,329.71875 z M 499.28125,375.59375 L 432.15625,434.375 L 431.375,439.59375 L 500.21875,379.3125 L 499.84375,377.78125 L 499.28125,375.59375 z M 507.0625,406.3125 L 455.46875,468.0625 C 454.89641,468.72029 454.90391,469.7074 455.5,470.34375 C 456.09607,470.98011 457.08749,471.05942 457.78125,470.53125 L 508.1875,434.34375 L 508.0625,430.25 L 466.71875,459.9375 L 507.46875,411.125 L 507.34375,407.46875 L 507.34375,407.375 L 507.0625,406.3125 z M 417,429.5 L 394.40625,463.25 L 395.8125,462.8125 L 399.53125,461.6875 L 420.78125,429.9375 L 417,429.5 z M 429.75,436.46875 L 401.75,461 L 402.03125,460.90625 L 404,463.59375 L 431.34375,439.625 L 429.75,436.46875 z M 387.46875,473.59375 C 387.09892,474.12438 387.09179,474.79708 387.375,475.34375 L 387.46875,473.59375 z "
         style="fill:url(#linearGradient3320);fill-opacity:1;stroke:none;stroke-width:3.4000001;stroke-linejoin:round;stroke-miterlimit:4;stroke-dasharray:none;stroke-opacity:1" />
      <path
         sodipodi:nodetypes="ccccccccccccccccccccccccccccccccccccccccccccccccccccccccccccccccccccccccccccccccccccccccccccccccccccccccccccccccc"
         id="path15268"
         d="M 366.625,18.5 L 364.0625,20.03125 L 358.9375,25.59375 L 349.65625,68.8125 L 345.375,263.09375 L 353.03633,68.904021 L 361.94258,38.560271 L 367.09883,33.872771 L 372.66133,38.904021 L 381.56758,69.247771 L 388.21875,263.4375 L 383.9375,69.15625 L 374.65625,25.9375 L 369.625,20.03125 L 366.625,18.5 z M 331.625,256.65625 L 320.90625,269.875 L 331.09375,260.9375 L 331.625,256.65625 z M 401.96875,257 L 402.5,261.28125 L 412.6875,270.21875 L 401.96875,257 z M 265.03125,295.40625 L 260.75,297.03125 L 268.9375,380.40625 L 274.5,378.96875 L 265.03125,295.40625 z M 468.5625,295.75 L 459.09375,379.3125 L 464.65625,380.75 L 472.84375,297.375 L 468.5625,295.75 z M 260.5625,338.28125 L 251.09375,352.90625 L 233.25,408.8125 L 230.5625,427.90625 L 232.53125,424.6875 L 235.1875,409.15625 L 252.875,354.53125 L 259.125,347.5625 L 263.40625,361.125 L 260.5625,338.28125 z M 473.03125,338.625 L 470.1875,361.46875 L 474.46875,347.90625 L 480.71875,354.875 L 498.40625,409.5 L 501.0625,425.03125 L 503.03125,428.25 L 500.34375,409.15625 L 482.5,353.25 L 473.03125,338.625 z M 275.03125,359.53125 L 277.53125,380.40625 L 286.8125,435.21875 L 280.90625,388.625 L 275.03125,359.53125 z M 458.5625,359.875 L 452.6875,388.96875 L 446.78125,435.5625 L 456.0625,380.75 L 458.5625,359.875 z M 331.4375,385.78125 L 325.03125,392.5625 L 328.0625,438.4375 L 327,393.4375 L 331.4375,385.78125 z M 402.15625,386.125 L 406.59375,393.78125 L 405.53125,438.78125 L 408.5625,392.90625 L 402.15625,386.125 z M 270.5625,389.875 L 286.28125,463.28125 L 277.15625,415.59375 L 270.5625,389.875 z M 286.4375,390.0625 L 293.9375,398.09375 L 300.1875,441.46875 L 294.65625,395.9375 L 286.4375,390.0625 z M 463.03125,390.21875 L 456.4375,415.9375 L 447.3125,463.625 L 463.03125,390.21875 z M 447.15625,390.40625 L 438.9375,396.28125 L 433.40625,441.8125 L 439.65625,398.4375 L 447.15625,390.40625 z M 319.5,430.40625 L 308.0625,431.3125 L 308.25,437.5625 L 309.3125,432.90625 L 318.40625,432.03125 L 320.375,436.65625 L 319.5,430.40625 z M 414.09375,430.75 L 413.21875,437 L 415.1875,432.375 L 424.28125,433.25 L 425.34375,437.90625 L 425.53125,431.65625 L 414.09375,430.75 z M 232.15625,450.0625 L 233.9375,463.96875 L 234.125,453.28125 L 232.15625,450.0625 z M 501.4375,450.40625 L 499.46875,453.625 L 499.65625,464.3125 L 501.4375,450.40625 z "
         style="fill:#ffffff;fill-opacity:0.75;stroke:none;stroke-opacity:1" />
      <path
         id="path8136"
         d="M 363.40625,279.34375 L 356.09375,287.15625 L 354.625,308.5625 L 359.5625,311.65625 L 362.40625,350.5625 L 367.4375,351.6875 L 372.5,350.5625 L 375.34375,311.65625 L 380.28125,308.5625 L 378.8125,287.15625 L 371.46875,279.34375 L 363.40625,279.34375 z M 354.1875,314.78125 L 352.03125,346.25 L 353.0625,372.53125 L 354.125,377.4375 L 356.53125,375.75 L 361.15625,364.15625 L 367.46875,363.375 L 373.75,364.15625 L 378.40625,375.75 L 380.75,377.40625 L 381.84375,372.53125 L 382.84375,346.25 L 380.6875,314.8125 L 376.96875,316.8125 L 374.28125,355.21875 L 367.4375,356.75 L 360.625,355.21875 L 357.9375,316.8125 L 354.1875,314.78125 z M 367.53125,368.15625 L 362.40625,369.875 L 358.46875,385.40625 L 356.5,387.09375 L 362.90625,402.0625 L 372,402.0625 L 378.3125,387 L 376.4375,385.40625 L 372.5,369.875 L 367.53125,368.15625 z "
         style="fill:url(#radialGradient3316);fill-opacity:1;stroke:#000000;stroke-opacity:1" />
      <path
         id="path9934"
         d="M 367.34375,9.6875 L 366.59375,10.34375 L 366.25,10.03125 L 366.5625,10.375 L 353.78125,21.84375 L 340.1875,67.03125 L 334.65625,253.28125 L 333.0625,309.6875 L 337.15625,365.21875 L 346.8125,459.53125 L 350.90625,525.40625 L 353.0625,581.65625 L 365.1875,592.375 L 358.09375,576.28125 L 353.9375,442.375 L 350.1875,415.9375 L 346.625,362.1875 L 342.15625,304.53125 L 342.15625,207.375 L 346.28125,67.90625 L 355.6875,22.6875 L 366.65625,10.46875 L 378,23.25 L 387.3125,68.25 L 391.4375,207.71875 L 391.4375,304.875 L 386.96875,362.53125 L 383.375,416.28125 L 379.625,442.71875 L 375.46875,576.65625 L 368.40625,592.71875 L 380.53125,582 L 382.6875,525.75 L 386.78125,459.875 L 396.4375,365.5625 L 400.53125,310.03125 L 398.9375,253.625 L 393.40625,67.375 L 379.8125,22.1875 L 366.6875,10.40625 L 367.34375,9.6875 z M 271.625,317.375 L 274.125,348.625 L 281.625,387.1875 L 291.8125,466.46875 L 285.1875,388.96875 L 276.28125,348.28125 L 271.625,317.375 z M 461.96875,317.71875 L 457.3125,348.625 L 448.40625,389.3125 L 441.78125,466.8125 L 451.96875,387.53125 L 459.46875,348.96875 L 461.96875,317.71875 z M 335.90625,369.34375 L 333.59375,381.3125 L 341.8125,461.84375 L 345.03125,459.6875 L 335.90625,369.34375 z M 397.6875,369.6875 L 388.5625,460.03125 L 391.78125,462.1875 L 400,381.65625 L 397.6875,369.6875 z M 253.5,414.09375 C 240.54349,414.09375 230.03125,424.63724 230.03125,437.59375 C 230.03125,450.55026 240.54349,461.0625 253.5,461.0625 C 266.45651,461.0625 277.00001,450.55026 277,437.59375 C 277,424.63724 266.45651,414.09377 253.5,414.09375 z M 480.09375,414.4375 C 467.13725,414.43751 456.59375,424.98099 456.59375,437.9375 C 456.59375,450.894 467.13724,461.40625 480.09375,461.40625 C 493.05027,461.40624 503.5625,450.89401 503.5625,437.9375 C 503.56251,424.98098 493.05026,414.4375 480.09375,414.4375 z M 253.5,415.03125 C 265.96319,415.03125 276.09376,425.13056 276.09375,437.59375 C 276.09375,450.05694 265.96319,460.15626 253.5,460.15625 C 241.03681,460.15625 230.9375,450.05694 230.9375,437.59375 C 230.9375,425.13056 241.03681,415.03125 253.5,415.03125 z M 480.09375,415.375 C 492.55695,415.37499 502.65625,425.47431 502.65625,437.9375 C 502.65626,450.40068 492.55694,460.5 480.09375,460.5 C 467.63057,460.5 457.5,450.40069 457.5,437.9375 C 457.5,425.4743 467.63056,415.375 480.09375,415.375 z M 321.4375,432.15625 L 325.25,466.875 L 330.53125,459.3125 L 326.875,440.375 L 321.4375,432.15625 z M 412.15625,432.5 L 406.71875,440.71875 L 403.0625,459.65625 L 408.34375,467.21875 L 412.15625,432.5 z M 306.8125,433.1875 L 302.5,441.5 L 303.15625,461.96875 L 308.4375,467.53125 L 306.8125,433.1875 z M 426.78125,433.53125 L 425.15625,467.875 L 430.4375,462.3125 L 431.09375,441.84375 L 426.78125,433.53125 z "
         style="fill:#000000;fill-opacity:0.50273222;stroke:none;stroke-opacity:1" />
      <path
         id="path19737"
         d="M 259.65625,297.5625 L 259.21875,314.0625 L 243.3125,344.15625 L 227.15625,407.90625 L 226.1875,440.5 L 230.28125,464.4375 L 239.65625,477.71875 L 250.75,481.84375 L 269.5,480.40625 L 284.84375,462.71875 L 277.6875,427.90625 L 283.25,462.71875 L 269.3125,478.09375 L 250.90625,479.53125 L 240.90625,475.9375 L 232.53125,464.53125 L 227.6875,440.9375 L 230.1875,408.8125 L 247.34375,347.375 L 259.5,324.53125 L 267.53125,382.03125 L 259.65625,297.5625 z M 473.9375,297.90625 L 466.0625,382.375 L 474.09375,324.875 L 486.25,347.71875 L 503.40625,409.15625 L 505.90625,441.28125 L 501.0625,464.875 L 492.6875,476.28125 L 482.6875,479.875 L 464.28125,478.4375 L 450.34375,463.0625 L 455.90625,428.25 L 448.75,463.0625 L 464.09375,480.75 L 482.84375,482.1875 L 493.9375,478.0625 L 503.3125,464.78125 L 507.40625,440.84375 L 506.4375,408.25 L 490.28125,344.5 L 474.375,314.40625 L 473.9375,297.90625 z M 332.1875,384.0625 L 325,393.40625 L 328.03125,441 L 331.6875,458.6875 L 340.40625,461.84375 L 332.1875,384.0625 z M 401.40625,384.40625 L 393.1875,462.1875 L 401.90625,459.03125 L 405.5625,441.34375 L 408.59375,393.75 L 401.40625,384.40625 z M 286.21875,388.96875 L 292.78125,465.75 L 301.75,462.21875 L 300.875,441.5 L 294.4375,395.65625 L 286.21875,388.96875 z M 447.375,389.3125 L 439.15625,396 L 432.71875,441.84375 L 431.84375,462.5625 L 440.8125,466.09375 L 447.375,389.3125 z "
         style="fill:#000000;fill-opacity:0.39344261;stroke:none;stroke-opacity:1" />
    </g>
    <g
       id="g5154"
       transform="matrix(0.8566298,0.5159316,-0.5159316,0.8566298,414.08403,101.79773)"
       inkscape:export-filename="/home/curved/Projects/ff3/data/RaptorLeftWing.png"
       inkscape:export-xdpi="19.495518"
       inkscape:export-ydpi="19.495518">
      <path
         style="fill:#ffffff;fill-opacity:1;stroke:#6b6b6b;stroke-width:3.20000172;stroke-miterlimit:4;stroke-dasharray:none;stroke-opacity:1"
         d="M 155.10042,543.5939 L 121.50559,549.57645 L 123.12208,537.93406 L 53.62866,576.45764 L 2.90514,610.39315 L -10.563144,649.25758 L 41.76416,657.44048 L 104.15496,634.68973 L 115.85783,613.72371 L 127.89244,608.46848 L 155.10042,543.5939 z "
         id="path30647"
         inkscape:transform-center-y="18.27246"
         inkscape:transform-center-x="-74.726867"
         sodipodi:nodetypes="ccccccccccc" />
      <path
         style="fill:#000000;fill-opacity:0.39344261;stroke:none;stroke-opacity:1"
         d="M 120.19865,541.58162 L 117.84989,581.95229 L 117.20943,546.18505 L 55.00565,579.66959 L 5.91146,612.38892 L -7.097107,647.63025 L 39.5033,654.6539 L 26.01902,617.03122 L 41.65641,654.84876 L 94.92096,635.33129 L 101.14611,633.28625 L 91.47607,593.85663 L 102.91151,632.44275 L 112.33866,613.92119 L 102.98612,565.4958 L 114.04225,611.29504 L 122.94785,607.92282 L 123.92305,609.31552 L 114.76972,612.55828 L 103.50953,633.95371 L 41.38181,656.21906 L -9.391985,648.3705 L 4.27115,611.48438 L 54.88304,577.7921 L 120.19865,541.58162 z M 126.51025,548.66461 L 125.74457,551.27631 L 122.66934,583.35137 L 127.08955,607.02815 L 127.97326,608.29418 L 127.90741,608.48054 L 126.36408,609.14048 L 124.84159,606.89409 L 121.17742,582.88707 L 122.73005,550.31589 L 122.99792,549.32053 L 126.51025,548.66461 z "
         id="path30651" />
      <path
         transform="matrix(0.9017521,0.1384628,-0.1384628,0.9017521,-291.77229,-121.5666)"
         d="M 537.14285,753.79078 L 512.2225,751.24339 L 502.82684,772.45129 L 497.54874,747.96344 L 474.47541,745.58124 L 496.13372,732.9943 L 491.26928,710.31412 L 509.93295,727.02282 L 529.99988,715.3879 L 519.87636,738.30138 L 537.14285,753.79078 z "
         inkscape:randomized="0"
         inkscape:rounded="0"
         inkscape:flatsided="false"
         sodipodi:arg2="1.162388"
         sodipodi:arg1="0.44441921"
         sodipodi:r2="12.790275"
         sodipodi:r1="33.227722"
         sodipodi:cy="739.50507"
         sodipodi:cx="507.14285"
         sodipodi:sides="5"
         id="path3243"
         style="fill:#ffffff;fill-opacity:1;stroke:#890000;stroke-width:2.5;stroke-linejoin:round;stroke-miterlimit:4;stroke-dasharray:none;stroke-opacity:1"
         sodipodi:type="star" />
      <path
         style="fill:#ffffff;fill-opacity:0.75;stroke:none;stroke-opacity:1"
         d="M 132.1227,547.67126 L 130.73761,551.7096 L 127.80349,567.19077 L 125.77738,570.37372 L 128.80659,551.33118 L 129.89646,548.06894 L 132.1227,547.67126 z M 116.50345,548.9541 L 116.56269,556.11256 L 115.39968,551.24719 L 57.69262,581.46803 L 10.53629,612.44055 L 11.93548,614.59097 L 7.86209,611.67376 L 55.05247,580.54558 L 116.50345,548.9541 z M 117.19173,561.12464 L 116.85296,580.02786 L 115.70351,563.94218 L 63.27886,588.91307 L 14.50506,619.45029 L 14.00582,617.6598 L 61.5175,587.78759 L 117.19173,561.12464 z M 126.97387,592.55499 L 128.88462,595.8085 L 128.50565,606.49093 L 126.97387,592.55499 z M 6.2238,614.1448 L 10.45957,616.72111 L 7.05106,616.8163 L -5.26586,646.6004 L 6.2238,614.1448 z M 91.81069,622.27345 L 96.04802,635.22647 L 91.39711,624.42264 L 43.96327,641.23165 L 43.51106,645.53674 L 42.01724,639.94657 L 91.81069,622.27345 z "
         id="path30655" />
      <path
         style="fill:#000000;fill-opacity:0.50273222;stroke:none;stroke-opacity:1"
         d="M 119.36219,554.97757 L 118.21462,578.89837 L 117.85156,559.04491 L 61.47034,586.78911 L 12.50851,617.35421 L 3.33738,611.12637 L 12.00927,615.56373 L 61.50226,585.00814 L 117.88348,557.26395 L 119.36219,554.97757 z M 148.70169,557.2224 C 148.93017,557.2265 149.1617,557.25539 149.38852,557.26597 L 148.99734,558.16535 C 148.89254,558.16205 148.79007,558.16163 148.68489,558.15975 C 136.22368,557.93643 125.94503,567.85316 125.72171,580.31436 C 125.60406,586.87846 128.305,592.83377 132.70446,597.03593 L 132.31328,597.93531 C 127.5898,593.55197 124.69111,587.24453 124.81561,580.29812 C 125.04776,567.34367 135.74726,556.99024 148.70169,557.2224 z M 93.74216,618.99756 L 98.95895,636.59388 L 97.48036,637.12997 L 92.29134,621.47197 L 40.70404,639.83181 L 45.94939,655.83463 L 45.12975,656.22625 L 43.74544,656.73277 L 38.22348,638.72468 L 93.74216,618.99756 z "
         id="path30657" />
      <path
         sodipodi:nodetypes="ccccccccccc"
         inkscape:transform-center-x="-74.726867"
         inkscape:transform-center-y="18.27246"
         id="path4183"
         d="M 155.10042,543.5939 L 121.50559,549.57645 L 123.12208,537.93406 L 53.62866,576.45764 L 2.90514,610.39315 L -10.563144,649.25758 L 41.76416,657.44048 L 104.15496,634.68973 L 115.85783,613.72371 L 127.89244,608.46848 L 155.10042,543.5939 z "
         style="fill:none;fill-opacity:1;stroke:#6b6b6b;stroke-width:3.20000172;stroke-miterlimit:4;stroke-dasharray:none;stroke-opacity:1" />
    </g>
    <g
       id="g4162"
       transform="matrix(-0.8708225,-0.4915975,-0.4915975,0.8708225,991.71389,434.30359)"
       inkscape:export-filename="/home/curved/Projects/ff3/data/RaptorRightWing.png"
       inkscape:export-xdpi="19.495518"
       inkscape:export-ydpi="19.495518">
      <g
         id="g5162"
         transform="matrix(-0.5,-0.8660254,-0.8660254,0.5,1046.8186,597.7827)">
        <path
           style="fill:#ffffff;fill-opacity:1;stroke:#6b6b6b;stroke-width:3.200001;stroke-miterlimit:4;stroke-dasharray:none;stroke-opacity:1"
           d="M 482.06052,514.85657 L 515.70493,520.5536 L 513.98964,508.92536 L 583.80768,546.85739 L 634.81754,580.36092 L 648.61539,619.10956 L 596.35947,627.73653 L 533.77773,605.51644 L 521.89723,584.65057 L 509.81844,579.49774 L 482.06052,514.85657 z "
           id="path4550"
           inkscape:transform-center-y="18.27246"
           inkscape:transform-center-x="-74.726867"
           sodipodi:nodetypes="ccccccccccc" />
        <g
           id="g3304"
           inkscape:export-filename="/home/curved/Projects/ff3/art/Raptor.png"
           inkscape:export-xdpi="19.495518"
           inkscape:export-ydpi="19.495518"
           transform="translate(10,111.42857)">
          <path
             id="path30570"
             d="M 511.99654,400.43266 L 485.67845,433.70179 L 490.44274,444.82986 L 533.53141,412.11802 L 511.99654,400.43266 z M 564.51829,428.96183 L 529.26795,467.28112 L 575.94181,435.38113 L 573.81083,433.99943 L 564.51829,428.96183 z M 602.47471,452.84278 L 558.25688,497.24477 L 616.59989,462.12925 L 602.47471,452.84278 z M 633.68836,492.46979 L 622.39822,504.11577 L 635.44319,497.36266 L 633.68836,492.46979 z "
             style="fill:url(#linearGradient5174);fill-opacity:1;stroke:none;stroke-opacity:0.39534882" />
          <path
             id="path30558"
             d="M 506.94393,399.69082 L 509.63545,440.04008 L 509.97214,404.26871 L 572.45801,437.22378 L 621.82827,469.525 L 635.13565,504.65458 L 588.59659,512.07371 L 601.76087,474.33788 L 586.44522,512.28686 L 533.01684,493.22242 L 526.77455,491.23033 L 536.10939,451.72002 L 525.00206,490.40185 L 515.41796,471.96102 L 524.35893,423.45796 L 513.69214,469.34944 L 504.75821,466.05297 L 503.79488,467.4539 L 512.97541,470.6188 L 524.41689,491.91783 L 586.73144,513.65477 L 637.43674,505.37531 L 623.46084,468.60656 L 572.56468,435.34531 L 506.94393,399.69082 z M 500.69272,406.82715 L 501.48054,409.43226 L 504.82805,441.48004 L 500.60907,465.19349 L 499.73615,466.46698 L 499.80358,466.65277 L 501.35244,467.29959 L 502.85581,465.04035 L 506.31597,441.00308 L 504.4868,408.44628 L 504.21047,407.45323 L 500.69272,406.82715 z "
             style="fill:#000000;fill-opacity:0.39344261;stroke:none;stroke-opacity:1" />
          <path
             id="path30563"
             d="M 510.50602,399.62799 L 505.45331,405.98239 L 505.71738,407.69476 L 505.3721,407.64136 L 504.30419,407.45075 L 484.91291,431.94015 L 486.44482,435.49468 L 513.51913,401.26774 L 510.50602,399.62799 z M 472.05492,401.988 L 472.42166,402.85362 L 473.15407,402.17779 L 472.05492,401.988 z M 531.91344,411.22294 L 489.7438,443.22276 L 491.14168,446.43696 L 535.18059,413.01228 L 531.91344,411.22294 z M 562.99571,428.12674 L 528.01827,466.12623 C 527.43194,466.75887 527.42373,467.72206 527.98397,468.37791 C 528.5442,469.03377 529.49534,469.17443 530.21185,468.69419 L 577.46935,436.40366 L 577.40604,436.37406 L 574.38303,434.35945 L 540.63637,457.41496 L 566.07212,429.79608 L 562.99571,428.12674 z M 601.01131,451.88109 L 557.06802,496.02574 C 556.45877,496.63143 556.41283,497.60158 556.94001,498.27991 C 557.46719,498.95823 558.40177,499.13156 559.13913,498.69073 L 618.1899,463.15011 L 615.04028,461.07631 L 569.12972,488.73591 L 603.93812,453.80447 L 601.01131,451.88109 z M 633.07819,490.67278 L 621.17896,502.92881 C 620.58339,503.52572 620.51519,504.47631 621.01887,505.15256 C 621.52258,505.82882 622.44593,506.02636 623.1884,505.62668 L 636.01717,498.97307 L 635.4103,497.30101 L 634.86839,495.72103 L 630.89053,497.79555 L 634.32894,494.23475 L 634.02469,493.36748 L 633.07819,490.67278 z "
             style="fill:url(#linearGradient5176);fill-opacity:1;stroke:none;stroke-width:3.4000001;stroke-linejoin:round;stroke-miterlimit:4;stroke-dasharray:none;stroke-opacity:1" />
          <text
             transform="matrix(0.947517,0.3197054,-0.3197054,0.947517,0,0)"
             sodipodi:linespacing="100%"
             id="text27871"
             y="290.06522"
             x="648.9306"
             style="font-size:55.77168274px;font-style:normal;font-variant:normal;font-weight:normal;font-stretch:normal;text-align:start;line-height:100%;writing-mode:lr-tb;text-anchor:start;fill:#000000;fill-opacity:1;stroke:none;stroke-width:1.19999945;stroke-linejoin:round;stroke-miterlimit:4;stroke-dasharray:none;stroke-opacity:1;font-family:Samanata"
             xml:space="preserve"><tspan
               y="290.06522"
               x="648.9306"
               id="tspan27873"
               sodipodi:role="line">03</tspan></text>
          <path
             id="path30575"
             d="M 495.07203,405.88151 L 496.49135,409.90793 L 499.55684,425.36363 L 501.60991,428.52926 L 498.41911,409.51314 L 497.30156,406.26026 L 495.07203,405.88151 z M 510.70161,407.03166 L 510.70316,414.19037 L 511.82481,409.31529 L 569.78642,439.04497 L 617.20406,469.6159 L 615.82319,471.77812 L 619.87164,468.82642 L 572.41863,438.10013 L 510.70161,407.03166 z M 510.11671,419.2076 L 510.616,438.10727 L 511.62881,422.0124 L 564.2636,446.53718 L 613.29495,476.6591 L 613.77898,474.86443 L 566.01534,445.39678 L 510.11671,419.2076 z M 500.60183,450.71988 L 498.71877,453.9895 L 499.18845,464.66833 L 500.60183,450.71988 z M 621.53086,471.28346 L 617.31713,473.89566 L 620.72632,473.9619 L 633.29573,503.64032 L 621.53086,471.28346 z M 536.01611,480.13865 L 531.88893,493.12718 L 536.44792,482.28424 L 584.02278,498.68983 L 584.51154,502.99092 L 585.95784,497.38827 L 536.01611,480.13865 z "
             style="fill:#ffffff;fill-opacity:0.75;stroke:none;stroke-opacity:1" />
          <path
             id="path30602"
             d="M 507.89412,413.07919 L 509.24479,436.98936 L 509.43924,417.13355 L 566.05402,444.39794 L 615.27363,474.54613 L 624.39155,468.24064 L 615.75765,472.75148 L 566.00698,442.61731 L 509.39219,415.35292 L 507.89412,413.07919 z M 478.57475,415.5731 C 478.34631,415.57913 478.11503,415.60998 477.88832,415.62249 L 478.28712,416.51852 C 478.3919,416.51433 478.49435,416.51304 478.59951,416.51027 C 491.05837,416.18113 501.42086,426.01021 501.74999,438.46906 C 501.92338,445.03192 499.27312,451.00995 494.9095,455.24932 L 495.3083,456.14535 C 499.99439,451.72204 502.83941,445.39022 502.65593,438.44512 C 502.31378,425.49312 491.52674,415.23093 478.57475,415.5731 z M 534.05689,476.87928 L 528.98972,494.51925 L 530.47282,495.04278 L 535.52867,479.34127 L 587.27001,497.26236 L 582.16076,513.30913 L 582.9837,513.69379 L 584.37225,514.18854 L 589.74108,496.1342 L 534.05689,476.87928 z "
             style="fill:#000000;fill-opacity:0.50273222;stroke:none;stroke-opacity:1" />
        </g>
        <path
           sodipodi:nodetypes="ccccccccccc"
           inkscape:transform-center-x="-74.726867"
           inkscape:transform-center-y="18.27246"
           id="path3191"
           d="M 482.06052,514.85657 L 515.70493,520.5536 L 513.98964,508.92536 L 583.80768,546.85739 L 634.81754,580.36092 L 648.61539,619.10956 L 596.35947,627.73653 L 533.77773,605.51644 L 521.89723,584.65057 L 509.81844,579.49774 L 482.06052,514.85657 z "
           style="fill:none;fill-opacity:1;stroke:#6b6b6b;stroke-width:3.200001;stroke-miterlimit:4;stroke-dasharray:none;stroke-opacity:1" />
      </g>
    </g>
  </g>
</svg>
