<?xml version="1.0" encoding="UTF-8" standalone="no"?>
<!-- Created with Inkscape (http://www.inkscape.org/) -->
<svg
   xmlns:dc="http://purl.org/dc/elements/1.1/"
   xmlns:cc="http://creativecommons.org/ns#"
   xmlns:rdf="http://www.w3.org/1999/02/22-rdf-syntax-ns#"
   xmlns:svg="http://www.w3.org/2000/svg"
   xmlns="http://www.w3.org/2000/svg"
   xmlns:sodipodi="http://sodipodi.sourceforge.net/DTD/sodipodi-0.dtd"
   xmlns:inkscape="http://www.inkscape.org/namespaces/inkscape"
   width="744.09448819"
   height="1052.3622047"
   id="svg2"
   sodipodi:version="0.32"
   inkscape:version="0.46"
   inkscape:export-filename="/home/curved/Projects/MirthKit/Finity Flight/data/Laser.png"
   inkscape:export-xdpi="13.96"
   inkscape:export-ydpi="13.96"
   sodipodi:docname="Rockets.svg"
   inkscape:output_extension="org.inkscape.output.svg.inkscape">
  <defs
     id="defs4">
    <inkscape:perspective
       sodipodi:type="inkscape:persp3d"
       inkscape:vp_x="0 : 526.18109 : 1"
       inkscape:vp_y="0 : 1000 : 0"
       inkscape:vp_z="744.09448 : 526.18109 : 1"
       inkscape:persp3d-origin="372.04724 : 350.78739 : 1"
       id="perspective10" />
  </defs>
  <sodipodi:namedview
     id="base"
     pagecolor="#ffffff"
     bordercolor="#666666"
     borderopacity="1.0"
     gridtolerance="10000"
     guidetolerance="10"
     objecttolerance="10"
     inkscape:pageopacity="0.0"
     inkscape:pageshadow="2"
     inkscape:zoom="0.35"
     inkscape:cx="367.66434"
     inkscape:cy="1051.2853"
     inkscape:document-units="px"
     inkscape:current-layer="layer1"
     showgrid="false"
     showguides="true"
     inkscape:guide-bbox="true"
     inkscape:window-width="1133"
     inkscape:window-height="722"
     inkscape:window-x="19"
     inkscape:window-y="25" />
  <metadata
     id="metadata7">
    <rdf:RDF>
      <cc:Work
         rdf:about="">
        <dc:format>image/svg+xml</dc:format>
        <dc:type
           rdf:resource="http://purl.org/dc/dcmitype/StillImage" />
      </cc:Work>
    </rdf:RDF>
  </metadata>
  <g
     inkscape:label="Layer 1"
     inkscape:groupmode="layer"
     id="layer1">
    <rect
       style="opacity:1;fill:none;fill-opacity:0.17777776000000001;stroke:#000000;stroke-width:14.15;stroke-linecap:round;stroke-miterlimit:4;stroke-dasharray:none;stroke-dashoffset:0;stroke-opacity:1"
       id="rect2383"
       width="630.55975"
       height="316.66995"
       x="68.578087"
       y="290.59488" />
    <text
       xml:space="preserve"
       style="font-size:72.42199707px;font-style:normal;font-weight:normal;fill:#000000;fill-opacity:1;stroke:none;stroke-width:1px;stroke-linecap:butt;stroke-linejoin:miter;stroke-opacity:1;font-family:Bitstream Vera Sans"
       x="154.11551"
       y="561.57849"
       id="text3260"><tspan
         sodipodi:role="line"
         id="tspan3262"
         x="154.11551"
         y="561.57849"
         style="font-style:normal;font-variant:normal;font-weight:normal;font-stretch:normal;font-family:Venus Rising;-inkscape-font-specification:Venus Rising">ROCKET</tspan></text>
    <rect
       style="opacity:1;fill:none;fill-opacity:0.17777776;stroke:#000000;stroke-width:3.68085027;stroke-linecap:round;stroke-miterlimit:4;stroke-dasharray:none;stroke-dashoffset:0;stroke-opacity:1"
       id="rect3783"
       width="179.8763"
       height="71.789986"
       x="343.62033"
       y="367.44418"
       ry="0" />
    <rect
       style="opacity:1;fill:none;fill-opacity:0.17777776;stroke:#000000;stroke-width:3.65538645;stroke-linecap:round;stroke-miterlimit:4;stroke-dasharray:none;stroke-dashoffset:0;stroke-opacity:1"
       id="rect3785"
       width="199.09467"
       height="34.4398"
       x="133.49588"
       y="387.63449" />
    <rect
       style="opacity:1;fill:none;fill-opacity:0.17777776;stroke:#000000;stroke-width:3.6565032;stroke-linecap:round;stroke-miterlimit:4;stroke-dasharray:none;stroke-dashoffset:0;stroke-opacity:1"
       id="rect3787"
       width="198.58847"
       height="85.956467"
       x="332.49649"
       y="360.36093"
       ry="10.112525" />
    <rect
       y="377.98325"
       x="133.94615"
       height="53.74231"
       width="198.19412"
       id="rect3789"
       style="opacity:1;fill:none;fill-opacity:0.17777776;stroke:#000000;stroke-width:4.5559268;stroke-linecap:round;stroke-miterlimit:4;stroke-dasharray:none;stroke-dashoffset:0;stroke-opacity:1" />
    <path
       style="opacity:1;fill:none;fill-opacity:0.17777776;stroke:#000000;stroke-width:4.12116623;stroke-linecap:round;stroke-miterlimit:4;stroke-dasharray:none;stroke-dashoffset:0;stroke-opacity:1"
       d="M 123.62308,385.8477 L 123.62308,425.36518 L 153.06442,411.18628 L 153.06442,400.06482 L 123.62308,385.8477 z"
       id="path3791"
       sodipodi:nodetypes="ccccc" />
    <path
       sodipodi:nodetypes="ccccc"
       id="path3796"
       d="M 175.35395,390.09567 L 175.35395,420.61212 L 154.87164,409.6628 L 154.87164,401.07451 L 175.35395,390.09567 z"
       style="opacity:1;fill:none;fill-opacity:0.17777776;stroke:#000000;stroke-width:3.0206697;stroke-linecap:round;stroke-miterlimit:4;stroke-dasharray:none;stroke-dashoffset:0;stroke-opacity:1" />
    <path
       sodipodi:type="arc"
       style="opacity:1;fill:none;fill-opacity:0.17777776;stroke:#000000;stroke-width:3.75;stroke-linecap:round;stroke-miterlimit:4;stroke-dasharray:none;stroke-dashoffset:0;stroke-opacity:1"
       id="path3798"
       sodipodi:cx="380.06989"
       sodipodi:cy="383.89374"
       sodipodi:rx="13.384521"
       sodipodi:ry="13.384521"
       d="M 393.45441,383.89374 A 13.384521,13.384521 0 1 1 366.68536,383.89374 A 13.384521,13.384521 0 1 1 393.45441,383.89374 z"
       transform="translate(-21.010153,2.5253814)" />
    <path
       d="M 393.45441,383.89374 A 13.384521,13.384521 0 1 1 366.68536,383.89374 A 13.384521,13.384521 0 1 1 393.45441,383.89374 z"
       sodipodi:ry="13.384521"
       sodipodi:rx="13.384521"
       sodipodi:cy="383.89374"
       sodipodi:cx="380.06989"
       id="path3800"
       style="opacity:1;fill:none;fill-opacity:0.17777776;stroke:#000000;stroke-width:3.75;stroke-linecap:round;stroke-miterlimit:4;stroke-dasharray:none;stroke-dashoffset:0;stroke-opacity:1"
       sodipodi:type="arc"
       transform="translate(-20.505076,36.365492)" />
    <path
       transform="translate(-21.010153,20.708127)"
       sodipodi:type="arc"
       style="opacity:1;fill:none;fill-opacity:0.17777776;stroke:#000000;stroke-width:3.75;stroke-linecap:round;stroke-miterlimit:4;stroke-dasharray:none;stroke-dashoffset:0;stroke-opacity:1"
       id="path3802"
       sodipodi:cx="380.06989"
       sodipodi:cy="383.89374"
       sodipodi:rx="13.384521"
       sodipodi:ry="13.384521"
       d="M 393.45441,383.89374 A 13.384521,13.384521 0 1 1 366.68536,383.89374 A 13.384521,13.384521 0 1 1 393.45441,383.89374 z" />
    <path
       d="M 393.45441,383.89374 A 13.384521,13.384521 0 1 1 366.68536,383.89374 A 13.384521,13.384521 0 1 1 393.45441,383.89374 z"
       sodipodi:ry="13.384521"
       sodipodi:rx="13.384521"
       sodipodi:cy="383.89374"
       sodipodi:cx="380.06989"
       id="path3804"
       style="opacity:1;fill:none;fill-opacity:0.17777776;stroke:#000000;stroke-width:3.75;stroke-linecap:round;stroke-miterlimit:4;stroke-dasharray:none;stroke-dashoffset:0;stroke-opacity:1"
       sodipodi:type="arc"
       transform="translate(3.738585,9.5964489)" />
    <path
       transform="translate(4.748738,28.284271)"
       sodipodi:type="arc"
       style="opacity:1;fill:none;fill-opacity:0.17777776;stroke:#000000;stroke-width:3.75;stroke-linecap:round;stroke-miterlimit:4;stroke-dasharray:none;stroke-dashoffset:0;stroke-opacity:1"
       id="path3806"
       sodipodi:cx="380.06989"
       sodipodi:cy="383.89374"
       sodipodi:rx="13.384521"
       sodipodi:ry="13.384521"
       d="M 393.45441,383.89374 A 13.384521,13.384521 0 1 1 366.68536,383.89374 A 13.384521,13.384521 0 1 1 393.45441,383.89374 z" />
    <path
       d="M 393.45441,383.89374 A 13.384521,13.384521 0 1 1 366.68536,383.89374 A 13.384521,13.384521 0 1 1 393.45441,383.89374 z"
       sodipodi:ry="13.384521"
       sodipodi:rx="13.384521"
       sodipodi:cy="383.89374"
       sodipodi:cx="380.06989"
       id="path3808"
       style="opacity:1;fill:none;fill-opacity:0.17777776;stroke:#000000;stroke-width:3.75;stroke-linecap:round;stroke-miterlimit:4;stroke-dasharray:none;stroke-dashoffset:0;stroke-opacity:1"
       sodipodi:type="arc"
       transform="translate(4.748738,-1.5152296)" />
    <path
       d="M 393.45441,383.89374 A 13.384521,13.384521 0 1 1 366.68536,383.89374 A 13.384521,13.384521 0 1 1 393.45441,383.89374 z"
       sodipodi:ry="13.384521"
       sodipodi:rx="13.384521"
       sodipodi:cy="383.89374"
       sodipodi:cx="380.06989"
       id="path3810"
       style="opacity:1;fill:none;fill-opacity:0.17777776;stroke:#000000;stroke-width:3.75;stroke-linecap:round;stroke-miterlimit:4;stroke-dasharray:none;stroke-dashoffset:0;stroke-opacity:1"
       sodipodi:type="arc"
       transform="translate(4.748738,38.890873)" />
    <path
       transform="translate(29.497475,2.5253814)"
       d="M 393.45441,383.89374 A 13.384521,13.384521 0 1 1 366.68536,383.89374 A 13.384521,13.384521 0 1 1 393.45441,383.89374 z"
       sodipodi:ry="13.384521"
       sodipodi:rx="13.384521"
       sodipodi:cy="383.89374"
       sodipodi:cx="380.06989"
       id="path3812"
       style="opacity:1;fill:none;fill-opacity:0.17777776;stroke:#000000;stroke-width:3.75;stroke-linecap:round;stroke-miterlimit:4;stroke-dasharray:none;stroke-dashoffset:0;stroke-opacity:1"
       sodipodi:type="arc" />
    <path
       transform="translate(30.002551,36.365492)"
       sodipodi:type="arc"
       style="opacity:1;fill:none;fill-opacity:0.17777776;stroke:#000000;stroke-width:3.75;stroke-linecap:round;stroke-miterlimit:4;stroke-dasharray:none;stroke-dashoffset:0;stroke-opacity:1"
       id="path3814"
       sodipodi:cx="380.06989"
       sodipodi:cy="383.89374"
       sodipodi:rx="13.384521"
       sodipodi:ry="13.384521"
       d="M 393.45441,383.89374 A 13.384521,13.384521 0 1 1 366.68536,383.89374 A 13.384521,13.384521 0 1 1 393.45441,383.89374 z" />
    <path
       d="M 393.45441,383.89374 A 13.384521,13.384521 0 1 1 366.68536,383.89374 A 13.384521,13.384521 0 1 1 393.45441,383.89374 z"
       sodipodi:ry="13.384521"
       sodipodi:rx="13.384521"
       sodipodi:cy="383.89374"
       sodipodi:cx="380.06989"
       id="path3816"
       style="opacity:1;fill:none;fill-opacity:0.17777776;stroke:#000000;stroke-width:3.75;stroke-linecap:round;stroke-miterlimit:4;stroke-dasharray:none;stroke-dashoffset:0;stroke-opacity:1"
       sodipodi:type="arc"
       transform="translate(29.497475,20.708127)" />
    <path
       transform="translate(52.730983,9.5964489)"
       sodipodi:type="arc"
       style="opacity:1;fill:none;fill-opacity:0.17777776;stroke:#000000;stroke-width:3.75;stroke-linecap:round;stroke-miterlimit:4;stroke-dasharray:none;stroke-dashoffset:0;stroke-opacity:1"
       id="path3818"
       sodipodi:cx="380.06989"
       sodipodi:cy="383.89374"
       sodipodi:rx="13.384521"
       sodipodi:ry="13.384521"
       d="M 393.45441,383.89374 A 13.384521,13.384521 0 1 1 366.68536,383.89374 A 13.384521,13.384521 0 1 1 393.45441,383.89374 z" />
    <path
       d="M 393.45441,383.89374 A 13.384521,13.384521 0 1 1 366.68536,383.89374 A 13.384521,13.384521 0 1 1 393.45441,383.89374 z"
       sodipodi:ry="13.384521"
       sodipodi:rx="13.384521"
       sodipodi:cy="383.89374"
       sodipodi:cx="380.06989"
       id="path3820"
       style="opacity:1;fill:none;fill-opacity:0.17777776;stroke:#000000;stroke-width:3.75;stroke-linecap:round;stroke-miterlimit:4;stroke-dasharray:none;stroke-dashoffset:0;stroke-opacity:1"
       sodipodi:type="arc"
       transform="translate(53.741136,28.284271)" />
    <path
       transform="translate(53.741136,-1.5152296)"
       sodipodi:type="arc"
       style="opacity:1;fill:none;fill-opacity:0.17777776;stroke:#000000;stroke-width:3.75;stroke-linecap:round;stroke-miterlimit:4;stroke-dasharray:none;stroke-dashoffset:0;stroke-opacity:1"
       id="path3822"
       sodipodi:cx="380.06989"
       sodipodi:cy="383.89374"
       sodipodi:rx="13.384521"
       sodipodi:ry="13.384521"
       d="M 393.45441,383.89374 A 13.384521,13.384521 0 1 1 366.68536,383.89374 A 13.384521,13.384521 0 1 1 393.45441,383.89374 z" />
    <path
       transform="translate(53.741136,38.890873)"
       sodipodi:type="arc"
       style="opacity:1;fill:none;fill-opacity:0.17777776;stroke:#000000;stroke-width:3.75;stroke-linecap:round;stroke-miterlimit:4;stroke-dasharray:none;stroke-dashoffset:0;stroke-opacity:1"
       id="path3824"
       sodipodi:cx="380.06989"
       sodipodi:cy="383.89374"
       sodipodi:rx="13.384521"
       sodipodi:ry="13.384521"
       d="M 393.45441,383.89374 A 13.384521,13.384521 0 1 1 366.68536,383.89374 A 13.384521,13.384521 0 1 1 393.45441,383.89374 z" />
    <path
       sodipodi:type="arc"
       style="opacity:1;fill:none;fill-opacity:0.17777776;stroke:#000000;stroke-width:3.75;stroke-linecap:round;stroke-miterlimit:4;stroke-dasharray:none;stroke-dashoffset:0;stroke-opacity:1"
       id="path3826"
       sodipodi:cx="380.06989"
       sodipodi:cy="383.89374"
       sodipodi:rx="13.384521"
       sodipodi:ry="13.384521"
       d="M 393.45441,383.89374 A 13.384521,13.384521 0 1 1 366.68536,383.89374 A 13.384521,13.384521 0 1 1 393.45441,383.89374 z"
       transform="translate(77.984797,2.5253814)" />
    <path
       d="M 393.45441,383.89374 A 13.384521,13.384521 0 1 1 366.68536,383.89374 A 13.384521,13.384521 0 1 1 393.45441,383.89374 z"
       sodipodi:ry="13.384521"
       sodipodi:rx="13.384521"
       sodipodi:cy="383.89374"
       sodipodi:cx="380.06989"
       id="path3828"
       style="opacity:1;fill:none;fill-opacity:0.17777776;stroke:#000000;stroke-width:3.75;stroke-linecap:round;stroke-miterlimit:4;stroke-dasharray:none;stroke-dashoffset:0;stroke-opacity:1"
       sodipodi:type="arc"
       transform="translate(78.489873,36.365492)" />
    <path
       transform="translate(77.984797,20.708127)"
       sodipodi:type="arc"
       style="opacity:1;fill:none;fill-opacity:0.17777776;stroke:#000000;stroke-width:3.75;stroke-linecap:round;stroke-miterlimit:4;stroke-dasharray:none;stroke-dashoffset:0;stroke-opacity:1"
       id="path3830"
       sodipodi:cx="380.06989"
       sodipodi:cy="383.89374"
       sodipodi:rx="13.384521"
       sodipodi:ry="13.384521"
       d="M 393.45441,383.89374 A 13.384521,13.384521 0 1 1 366.68536,383.89374 A 13.384521,13.384521 0 1 1 393.45441,383.89374 z" />
    <path
       d="M 393.45441,383.89374 A 13.384521,13.384521 0 1 1 366.68536,383.89374 A 13.384521,13.384521 0 1 1 393.45441,383.89374 z"
       sodipodi:ry="13.384521"
       sodipodi:rx="13.384521"
       sodipodi:cy="383.89374"
       sodipodi:cx="380.06989"
       id="path3832"
       style="opacity:1;fill:none;fill-opacity:0.17777776;stroke:#000000;stroke-width:3.75;stroke-linecap:round;stroke-miterlimit:4;stroke-dasharray:none;stroke-dashoffset:0;stroke-opacity:1"
       sodipodi:type="arc"
       transform="translate(102.22846,9.5964489)" />
    <path
       transform="translate(103.23861,28.284271)"
       sodipodi:type="arc"
       style="opacity:1;fill:none;fill-opacity:0.17777776;stroke:#000000;stroke-width:3.75;stroke-linecap:round;stroke-miterlimit:4;stroke-dasharray:none;stroke-dashoffset:0;stroke-opacity:1"
       id="path3834"
       sodipodi:cx="380.06989"
       sodipodi:cy="383.89374"
       sodipodi:rx="13.384521"
       sodipodi:ry="13.384521"
       d="M 393.45441,383.89374 A 13.384521,13.384521 0 1 1 366.68536,383.89374 A 13.384521,13.384521 0 1 1 393.45441,383.89374 z" />
    <path
       d="M 393.45441,383.89374 A 13.384521,13.384521 0 1 1 366.68536,383.89374 A 13.384521,13.384521 0 1 1 393.45441,383.89374 z"
       sodipodi:ry="13.384521"
       sodipodi:rx="13.384521"
       sodipodi:cy="383.89374"
       sodipodi:cx="380.06989"
       id="path3836"
       style="opacity:1;fill:none;fill-opacity:0.17777776;stroke:#000000;stroke-width:3.75;stroke-linecap:round;stroke-miterlimit:4;stroke-dasharray:none;stroke-dashoffset:0;stroke-opacity:1"
       sodipodi:type="arc"
       transform="translate(103.23861,-1.5152296)" />
    <path
       d="M 393.45441,383.89374 A 13.384521,13.384521 0 1 1 366.68536,383.89374 A 13.384521,13.384521 0 1 1 393.45441,383.89374 z"
       sodipodi:ry="13.384521"
       sodipodi:rx="13.384521"
       sodipodi:cy="383.89374"
       sodipodi:cx="380.06989"
       id="path3838"
       style="opacity:1;fill:none;fill-opacity:0.17777776;stroke:#000000;stroke-width:3.75;stroke-linecap:round;stroke-miterlimit:4;stroke-dasharray:none;stroke-dashoffset:0;stroke-opacity:1"
       sodipodi:type="arc"
       transform="translate(103.23861,38.890873)" />
    <path
       transform="translate(127.98735,2.5253814)"
       d="M 393.45441,383.89374 A 13.384521,13.384521 0 1 1 366.68536,383.89374 A 13.384521,13.384521 0 1 1 393.45441,383.89374 z"
       sodipodi:ry="13.384521"
       sodipodi:rx="13.384521"
       sodipodi:cy="383.89374"
       sodipodi:cx="380.06989"
       id="path3840"
       style="opacity:1;fill:none;fill-opacity:0.17777776;stroke:#000000;stroke-width:3.75;stroke-linecap:round;stroke-miterlimit:4;stroke-dasharray:none;stroke-dashoffset:0;stroke-opacity:1"
       sodipodi:type="arc" />
    <path
       transform="translate(128.49242,36.365492)"
       sodipodi:type="arc"
       style="opacity:1;fill:none;fill-opacity:0.17777776;stroke:#000000;stroke-width:3.75;stroke-linecap:round;stroke-miterlimit:4;stroke-dasharray:none;stroke-dashoffset:0;stroke-opacity:1"
       id="path3842"
       sodipodi:cx="380.06989"
       sodipodi:cy="383.89374"
       sodipodi:rx="13.384521"
       sodipodi:ry="13.384521"
       d="M 393.45441,383.89374 A 13.384521,13.384521 0 1 1 366.68536,383.89374 A 13.384521,13.384521 0 1 1 393.45441,383.89374 z" />
    <path
       d="M 393.45441,383.89374 A 13.384521,13.384521 0 1 1 366.68536,383.89374 A 13.384521,13.384521 0 1 1 393.45441,383.89374 z"
       sodipodi:ry="13.384521"
       sodipodi:rx="13.384521"
       sodipodi:cy="383.89374"
       sodipodi:cx="380.06989"
       id="path3844"
       style="opacity:1;fill:none;fill-opacity:0.17777776;stroke:#000000;stroke-width:3.75;stroke-linecap:round;stroke-miterlimit:4;stroke-dasharray:none;stroke-dashoffset:0;stroke-opacity:1"
       sodipodi:type="arc"
       transform="translate(127.98735,20.708127)" />
    <path
       style="opacity:1;fill:none;fill-opacity:0.17777776;stroke:#000000;stroke-width:3.75;stroke-linecap:round;stroke-miterlimit:4;stroke-dasharray:none;stroke-dashoffset:0;stroke-opacity:1"
       d="M 525.97811,362.4375 L 525.97811,444.75 L 650.72811,405.375 L 650.72811,401.8125 L 525.97811,362.4375 z"
       id="path3846"
       sodipodi:nodetypes="ccccc" />
    <rect
       style="opacity:1;fill:none;fill-opacity:0.17777776;stroke:#000000;stroke-width:3.75;stroke-linecap:round;stroke-miterlimit:4;stroke-dasharray:none;stroke-dashoffset:0;stroke-opacity:1"
       id="rect3851"
       width="80"
       height="14.642858"
       x="549.64288"
       y="395.93362"
       ry="7.3214288" />
    <rect
       style="opacity:1;fill:none;fill-opacity:0.17777776;stroke:#000000;stroke-width:3.75;stroke-linecap:round;stroke-miterlimit:4;stroke-dasharray:none;stroke-dashoffset:0;stroke-opacity:1"
       id="rect3853"
       width="33.57143"
       height="19.285715"
       x="535"
       y="375.93362"
       ry="0" />
    <rect
       ry="0"
       y="392.71933"
       x="534.64288"
       height="19.285715"
       width="33.57143"
       id="rect3855"
       style="opacity:1;fill:none;fill-opacity:0.17777776;stroke:#000000;stroke-width:3.75;stroke-linecap:round;stroke-miterlimit:4;stroke-dasharray:none;stroke-dashoffset:0;stroke-opacity:1" />
    <rect
       style="opacity:1;fill:none;fill-opacity:0.17777776;stroke:#000000;stroke-width:3.75;stroke-linecap:round;stroke-miterlimit:4;stroke-dasharray:none;stroke-dashoffset:0;stroke-opacity:1"
       id="rect3857"
       width="33.57143"
       height="19.285715"
       x="534.28577"
       y="410.57648"
       ry="0" />
    <path
       style="opacity:1;fill:none;fill-opacity:0.17777776;stroke:#000000;stroke-width:3.75;stroke-linecap:round;stroke-miterlimit:4;stroke-dasharray:none;stroke-dashoffset:0;stroke-opacity:1"
       d="M 135.56349,433.13867 L 125.46197,439.19958 L 130.51273,469.50416 L 161.82746,470.51431 L 233.54829,432.12851"
       id="path3859" />
    <path
       id="path3861"
       d="M 135.56349,375.93272 L 125.46197,369.87181 L 130.51273,339.56723 L 161.82746,338.55708 L 233.54829,376.94288"
       style="opacity:1;fill:none;fill-opacity:0.17777776;stroke:#000000;stroke-width:3.75;stroke-linecap:round;stroke-miterlimit:4;stroke-dasharray:none;stroke-dashoffset:0;stroke-opacity:1" />
    <path
       style="opacity:1;fill:none;fill-opacity:0.17777776;stroke:#000000;stroke-width:3;stroke-linecap:round;stroke-miterlimit:4;stroke-dasharray:none;stroke-dashoffset:0;stroke-opacity:1"
       d="M 134.10107,405.00383 L 123.66337,404.99409 L 128.88222,404.9454 L 161.23913,404.94378 L 235.34689,405.00545"
       id="path3865" />
  </g>
</svg>
